<svg width="75" height="68" viewBox="0 0 75 68" fill="none" xmlns="http://www.w3.org/2000/svg">
<path d="M14.6667 8.3282C14.4265 7.44266 14.3579 6.51936 14.4646 5.60806C13.1515 3.20377 11.1458 1.24983 8.70807 0L11.0969 7.44695C8.95798 5.78657 6.37322 4.80039 3.67188 4.614L7.95009 9.5431L14.9956 14.9215C15.3593 12.7255 15.2471 10.4771 14.6667 8.3282Z" fill="#E9A42D"/>
<path d="M12.5372 17.8549L15.9996 15.6753L7.94958 9.54245C5.72421 10.7857 3.85959 12.5852 2.5381 14.765C0.174526 19.2307 -0.5683 24.3776 0.436069 29.3295C1.44044 34.2813 4.12992 38.7321 8.04668 41.924H11.3546C10.1464 39.9045 9.51155 37.5938 9.51837 35.2405V22.0046L11.1814 20.8147C11.2726 20.7462 11.36 20.6726 11.4432 20.5944C11.5194 20.5254 11.5919 20.4523 11.6602 20.3754C11.9738 20.0395 12.2138 19.6417 12.3646 19.2076C12.5155 18.7735 12.5739 18.3127 12.5362 17.8547L12.5372 17.8549Z" fill="#F6E174"/>
<path d="M18.8407 8.93101C17.7171 6.41557 17.2852 3.64577 17.5899 0.907663V0.84198C14.5413 2.88625 13.9963 5.7706 14.6675 8.3282C15.2474 10.4768 15.3592 12.7248 14.9954 14.9203L15.6432 15.4134C18.7041 13.7947 19.9921 11.5807 18.8407 8.93101Z" fill="#FFFF6C"/>
<path d="M7.96983 41.8607C7.36551 41.3623 6.78761 40.8326 6.23851 40.2739L3.20898 41.8607H7.96983Z" fill="#505050"/>
<path d="M12.4342 18.9698C12.2918 19.4962 12.0214 19.9792 11.6472 20.3758L11.5996 20.4234C11.8641 20.7835 12.2115 21.0744 12.6124 21.2716C13.0132 21.4688 13.4558 21.5664 13.9024 21.5561C14.349 21.5458 14.7866 21.4279 15.178 21.2124C15.5693 20.997 15.903 20.6903 16.1506 20.3184L12.4342 18.9698Z" fill="#363636"/>
<path d="M7.94922 9.54245L13.2424 17.409L15.9861 15.675L7.94922 9.54245Z" fill="url(#paint0_linear_377_921)"/>
<path d="M10.4055 19.1638C11.1559 19.1638 11.7642 18.5555 11.7642 17.8051C11.7642 17.0548 11.1559 16.4465 10.4055 16.4465C9.65516 16.4465 9.04688 17.0548 9.04688 17.8051C9.04688 18.5555 9.65516 19.1638 10.4055 19.1638Z" fill="#363636"/>
<path d="M5.77194 24.8974C7.51318 24.8974 8.92473 23.4859 8.92473 21.7446C8.92473 20.0034 7.51318 18.5918 5.77194 18.5918C4.0307 18.5918 2.61914 20.0034 2.61914 21.7446C2.61914 23.4859 4.0307 24.8974 5.77194 24.8974Z" fill="#DC3B1B"/>
<path d="M16.001 15.6756L12.5385 17.8553C12.5686 18.2336 12.5331 18.6143 12.4336 18.9805L16.3891 20.4084L16.3498 21.6459C16.9323 21.3722 17.4194 20.9303 17.7484 20.3772C18.0773 19.8241 18.2331 19.1852 18.1956 18.5427C18.158 17.9003 17.9289 17.2838 17.5377 16.7728C17.1466 16.2618 16.6113 15.8796 16.001 15.6756Z" fill="#505050"/>
<path d="M17.9146 20.0402C17.5977 20.7455 17.0397 21.3147 16.3408 21.6456L16.3801 20.4081L16.1492 20.3241C15.9013 20.6947 15.5677 21.0002 15.1767 21.2147C14.7858 21.4292 14.3489 21.5464 13.9031 21.5565C13.4573 21.5665 13.0156 21.4691 12.6154 21.2724C12.2151 21.0757 11.8682 20.7855 11.6038 20.4264C11.4693 20.5693 11.3218 20.6993 11.163 20.8146L9.5 22.0045V32.3786H22.4682V29.1368C22.469 27.3708 22.0579 25.629 21.2674 24.0499C20.4769 22.4707 19.3289 21.0977 17.9146 20.0402Z" fill="#E9A42D"/>
<path d="M11.3222 41.8609C11.0636 41.4277 10.8314 40.9792 10.6271 40.5179L8.06445 41.8609H11.3222Z" fill="#363636"/>
<path d="M11.3208 41.8614H1.28218C1.17781 41.8614 1.07772 41.9029 1.00393 41.9767C0.93013 42.0505 0.888672 42.1505 0.888672 42.2549C0.888672 42.3593 0.93013 42.4594 1.00393 42.5332C1.07772 42.607 1.17781 42.6484 1.28218 42.6484H11.827C11.648 42.3912 11.4814 42.1289 11.3208 41.8614Z" fill="#363636"/>
<path d="M9.50781 32.3786H22.5017V48.2349C20.7953 48.2349 19.1056 47.8988 17.5291 47.2458C15.9526 46.5928 14.5202 45.6357 13.3136 44.4291C10.8768 41.9923 9.50781 38.6872 9.50781 35.2411V32.3786Z" fill="#FFFF6C"/>
<path d="M22.5028 48.2353C20.4041 48.2368 18.3364 47.7292 16.477 46.7561C14.6176 45.783 13.0219 44.3734 11.8269 42.6482H6.64648V52.1437C6.64623 54.2263 7.05629 56.2885 7.85322 58.2125C8.65014 60.1366 9.81834 61.8848 11.2911 63.3573C12.7638 64.8298 14.5122 65.9977 16.4364 66.7943C18.3606 67.5909 20.4228 68.0006 22.5054 68H22.5028V48.2353Z" fill="url(#paint1_linear_377_921)"/>
<path d="M28.7697 31.7045C29.2128 31.6916 29.654 31.7669 30.0678 31.9258C30.4816 32.0848 30.8597 32.3243 31.1802 32.6305C31.1999 32.6482 31.2156 32.6698 31.2263 32.694C31.2371 32.7182 31.2426 32.7443 31.2426 32.7708C31.2426 32.7972 31.2371 32.8234 31.2263 32.8475C31.2156 32.8717 31.1999 32.8933 31.1802 32.911L30.3932 33.7164C30.3771 33.7331 30.3577 33.7464 30.3363 33.7555C30.3149 33.7646 30.2919 33.7692 30.2687 33.7692C30.2454 33.7692 30.2224 33.7646 30.201 33.7555C30.1796 33.7464 30.1602 33.7331 30.1441 33.7164C29.8968 33.5102 29.6038 33.3662 29.2896 33.2963C28.9754 33.2265 28.649 33.2328 28.3376 33.3148C28.0263 33.3968 27.7392 33.5521 27.5001 33.7677C27.2611 33.9833 27.077 34.2529 26.9634 34.5541C26.8498 34.8553 26.8099 35.1793 26.847 35.4991C26.8842 35.8189 26.9973 36.1251 27.1769 36.3923C27.3565 36.6594 27.5974 36.8798 27.8795 37.0348C28.1616 37.1899 28.4767 37.2753 28.7985 37.2837C29.2855 37.2843 29.7574 37.1156 30.1336 36.8063C30.1696 36.7742 30.2162 36.7565 30.2645 36.7565C30.3128 36.7565 30.3593 36.7742 30.3954 36.8063L31.1824 37.6326C31.214 37.6689 31.2314 37.7154 31.2314 37.7635C31.2314 37.8116 31.214 37.8581 31.1824 37.8944C30.5355 38.525 29.6647 38.8731 28.7614 38.8623C28.2822 38.8752 27.8052 38.792 27.3587 38.6176C26.9122 38.4431 26.5052 38.181 26.1617 37.8466C25.8181 37.5123 25.5451 37.1125 25.3587 36.6708C25.1722 36.2292 25.0762 35.7547 25.0762 35.2753C25.0762 34.7959 25.1722 34.3214 25.3587 33.8797C25.5451 33.4381 25.8181 33.0383 26.1617 32.7039C26.5052 32.3696 26.9122 32.1074 27.3587 31.933C27.8052 31.7585 28.2822 31.6753 28.7614 31.6883L28.7697 31.7045Z" fill="#032430"/>
<path d="M31.49 38.5193L34.6218 31.8149C34.6376 31.7833 34.6614 31.7565 34.6908 31.7372C34.7203 31.7178 34.7544 31.7066 34.7896 31.7047H34.8848C34.9203 31.7067 34.9547 31.7179 34.9846 31.7372C35.0145 31.7565 35.0388 31.7833 35.0552 31.8149L38.1713 38.5193C38.1872 38.5472 38.1951 38.5788 38.1942 38.6108C38.1934 38.6428 38.1838 38.674 38.1665 38.7009C38.1492 38.7279 38.1249 38.7496 38.0962 38.7637C38.0675 38.7779 38.0355 38.7839 38.0036 38.7811H36.8967C36.7182 38.7811 36.6349 38.7209 36.5478 38.5193L36.1908 37.7323H33.4736L33.1142 38.5193C33.0864 38.5914 33.0368 38.653 32.9724 38.6956C32.9081 38.7382 32.832 38.7598 32.7548 38.7573H31.6577C31.629 38.7579 31.6006 38.7514 31.5749 38.7385C31.5492 38.7255 31.5272 38.7064 31.5106 38.6829C31.494 38.6594 31.4835 38.6322 31.4799 38.6037C31.4763 38.5752 31.4798 38.5462 31.49 38.5193ZM35.5845 36.3868L34.8265 34.7447L34.079 36.3868H35.5845Z" fill="#032430"/>
<path d="M42.0067 31.7045C42.4498 31.6916 42.891 31.7669 43.3048 31.9258C43.7186 32.0848 44.0967 32.3243 44.4172 32.6305C44.4377 32.6477 44.4541 32.6692 44.4654 32.6934C44.4766 32.7176 44.4825 32.744 44.4825 32.7708C44.4825 32.7975 44.4766 32.8239 44.4654 32.8481C44.4541 32.8723 44.4377 32.8938 44.4172 32.911L43.6305 33.7164C43.6142 33.7351 43.5941 33.7502 43.5715 33.7605C43.5489 33.7708 43.5244 33.7761 43.4996 33.7761C43.4747 33.7761 43.4502 33.7708 43.4276 33.7605C43.405 33.7502 43.3849 33.7351 43.3687 33.7164C43.1214 33.5102 42.8285 33.3662 42.5142 33.2963C42.2 33.2265 41.8736 33.2328 41.5623 33.3148C41.251 33.3968 40.9638 33.5521 40.7247 33.7677C40.4857 33.9833 40.3016 34.2529 40.188 34.5541C40.0744 34.8553 40.0345 35.1793 40.0717 35.4991C40.1088 35.8189 40.2219 36.1251 40.4015 36.3923C40.5811 36.6594 40.822 36.8798 41.1041 37.0348C41.3862 37.1899 41.7013 37.2753 42.0231 37.2837C42.5101 37.2843 42.982 37.1155 43.3582 36.8063C43.3943 36.7742 43.4408 36.7565 43.4891 36.7565C43.5374 36.7565 43.5839 36.7742 43.62 36.8063L44.407 37.6326C44.4396 37.6684 44.4577 37.7151 44.4577 37.7635C44.4577 37.8119 44.4396 37.8586 44.407 37.8944C43.7601 38.525 42.8893 38.8731 41.986 38.8623C41.5068 38.8752 41.0299 38.792 40.5833 38.6176C40.1368 38.4431 39.7298 38.181 39.3863 37.8466C39.0428 37.5123 38.7697 37.1125 38.5833 36.6708C38.3968 36.2292 38.3008 35.7547 38.3008 35.2753C38.3008 34.7959 38.3968 34.3214 38.5833 33.8797C38.7697 33.4381 39.0428 33.0383 39.3863 32.7039C39.7298 32.3696 40.1368 32.1074 40.5833 31.933C41.0299 31.7585 41.5068 31.6753 41.986 31.6883L42.0067 31.7045Z" fill="#032430"/>
<path d="M44.7292 38.5193L47.848 31.8149C47.8637 31.7833 47.8875 31.7565 47.917 31.7372C47.9465 31.7178 47.9806 31.7066 48.0158 31.7047H48.1155C48.1511 31.7064 48.1856 31.7175 48.2155 31.7368C48.2455 31.7562 48.2697 31.7831 48.2859 31.8149L51.4099 38.5193C51.4258 38.5474 51.4337 38.5793 51.4327 38.6115C51.4317 38.6437 51.4219 38.675 51.4043 38.7021C51.3867 38.7291 51.362 38.7507 51.333 38.7647C51.3039 38.7786 51.2716 38.7843 51.2395 38.7811H50.1352C49.9544 38.7811 49.8735 38.7207 49.7864 38.5193L49.427 37.7323H46.7121L46.3527 38.5193C46.3249 38.5914 46.2754 38.653 46.211 38.6956C46.1466 38.7382 46.0706 38.7598 45.9934 38.7573H44.8987C44.8697 38.7584 44.8409 38.7522 44.8149 38.7394C44.7889 38.7266 44.7665 38.7076 44.7496 38.684C44.7328 38.6605 44.722 38.6331 44.7183 38.6044C44.7145 38.5756 44.718 38.5464 44.7283 38.5193H44.7292ZM48.8237 36.3868L48.0655 34.7447L47.318 36.3868H48.8237Z" fill="#032430"/>
<path d="M52.7578 33.2688H51.3335C51.2834 33.2688 51.2353 33.2488 51.1999 33.2134C51.1644 33.178 51.1445 33.1299 51.1445 33.0798V32.0017C51.1445 31.9769 51.1494 31.9523 51.1588 31.9294C51.1683 31.9064 51.1823 31.8856 51.1998 31.8681C51.2174 31.8505 51.2382 31.8366 51.2611 31.8271C51.2841 31.8176 51.3087 31.8127 51.3335 31.8128H55.7559C55.806 31.8128 55.8541 31.8327 55.8895 31.8681C55.925 31.9036 55.9449 31.9516 55.9449 32.0017V33.0876C55.9449 33.1378 55.925 33.1858 55.8895 33.2213C55.8541 33.2567 55.806 33.2766 55.7559 33.2766H54.3316V38.5988C54.3303 38.6486 54.31 38.6959 54.2748 38.7311C54.2397 38.7662 54.1923 38.7865 54.1426 38.7878H52.9465C52.8968 38.7865 52.8495 38.7662 52.8143 38.7311C52.7792 38.6959 52.7588 38.6486 52.7576 38.5988L52.7578 33.2688Z" fill="#032430"/>
<path d="M59.9705 31.7047C60.7985 31.7041 61.6012 31.9906 62.2418 32.5153C62.8824 33.04 63.3214 33.7705 63.4839 34.5825C63.6464 35.3945 63.5224 36.2377 63.1331 36.9685C62.7438 37.6994 62.1132 38.2727 61.3487 38.5908C60.5841 38.9089 59.733 38.9523 58.9401 38.7134C58.1473 38.4745 57.4617 37.9682 57.0002 37.2806C56.5387 36.5931 56.3298 35.7668 56.409 34.9426C56.4882 34.1183 56.8507 33.347 57.4348 32.7599C57.7674 32.4262 58.1626 32.1612 58.5977 31.9801C59.0327 31.7991 59.4992 31.7055 59.9705 31.7047ZM59.9705 37.284C60.3656 37.286 60.7525 37.1706 61.082 36.9524C61.4114 36.7341 61.6686 36.4229 61.8207 36.0582C61.9729 35.6935 62.0133 35.2917 61.9367 34.9041C61.8601 34.5164 61.67 34.1602 61.3906 33.8808C61.1112 33.6013 60.755 33.4112 60.3673 33.3346C59.9796 33.2581 59.5779 33.2984 59.2132 33.4506C58.8485 33.6028 58.5372 33.8599 58.319 34.1894C58.1007 34.5188 57.9853 34.9057 57.9874 35.3009C57.9901 35.826 58.1999 36.3288 58.5712 36.7001C58.9426 37.0714 59.4454 37.2812 59.9705 37.284Z" fill="#032430"/>
<path d="M64.7617 32.0012C64.7621 31.9509 64.7823 31.9028 64.818 31.8675C64.8536 31.8321 64.9019 31.8122 64.9521 31.8122H69.0756C69.1258 31.8122 69.1738 31.8321 69.2093 31.8675C69.2447 31.903 69.2646 31.951 69.2646 32.0012V33.0871C69.2646 33.1372 69.2447 33.1852 69.2093 33.2207C69.1738 33.2561 69.1258 33.276 69.0756 33.276H66.315V34.5114H68.5866C68.6363 34.5134 68.6835 34.5341 68.7185 34.5694C68.7536 34.6047 68.774 34.652 68.7755 34.7018V35.7877C68.7755 35.8125 68.7707 35.8371 68.7612 35.86C68.7517 35.8829 68.7377 35.9038 68.7202 35.9213C68.7027 35.9389 68.6818 35.9528 68.6589 35.9623C68.636 35.9718 68.6114 35.9767 68.5866 35.9767H66.315V37.3196H69.0756C69.1259 37.32 69.1739 37.3402 69.2093 37.3759C69.2447 37.4115 69.2646 37.4597 69.2646 37.51V38.5959C69.2646 38.646 69.2447 38.6941 69.2093 38.7295C69.1738 38.7649 69.1258 38.7848 69.0756 38.7848H64.9521C64.9019 38.7848 64.8536 38.765 64.818 38.7296C64.7823 38.6942 64.7621 38.6461 64.7617 38.5959V32.0012Z" fill="#032430"/>
<path d="M65.9573 30.3698C65.9327 30.3549 65.9116 30.3351 65.8951 30.3116C65.8786 30.2882 65.8672 30.2615 65.8615 30.2334C65.8558 30.2053 65.8561 30.1763 65.8622 30.1483C65.8683 30.1203 65.8802 30.0938 65.897 30.0706L66.2355 29.483C66.2878 29.3938 66.4349 29.4147 66.4972 29.4542L68.1917 30.4904C68.2227 30.5095 68.2459 30.539 68.257 30.5737C68.268 30.6084 68.2663 30.6459 68.2521 30.6794L68.0422 31.0992C68.0334 31.1243 68.0191 31.1472 68.0001 31.166C67.9812 31.1847 67.9583 31.199 67.9331 31.2076C67.9078 31.2162 67.881 31.2189 67.8545 31.2156C67.8281 31.2123 67.8028 31.203 67.7804 31.1884L65.9573 30.3698Z" fill="#DC3B1B"/>
<path d="M70.2021 37.8318L70.6716 37.0055C70.7113 36.9563 70.7674 36.9232 70.8296 36.9121C70.8918 36.901 70.9559 36.9128 71.01 36.9453C71.0493 36.9662 71.7656 37.4927 72.4239 37.4927C72.5088 37.5013 72.5947 37.4925 72.6761 37.4667C72.7575 37.4409 72.8327 37.3986 72.8971 37.3426C72.9616 37.2865 73.0138 37.2178 73.0506 37.1408C73.0874 37.0637 73.1081 36.9799 73.1112 36.8946C73.1112 36.4748 72.7623 36.1569 72.0855 35.8875C71.2287 35.5491 70.1523 34.8829 70.1523 33.6868C70.1523 32.7006 70.9184 31.7037 72.4527 31.7037C73.2239 31.7255 73.9692 31.9868 74.5853 32.4512C74.63 32.4899 74.6603 32.5426 74.6713 32.6007C74.6823 32.6589 74.6733 32.719 74.6457 32.7713L74.1369 33.5372C74.0688 33.6473 73.8877 33.7366 73.7985 33.6657C73.7092 33.5947 72.9827 33.0707 72.3742 33.0707C72.2243 33.0567 72.0749 33.1017 71.9578 33.1963C71.8407 33.2909 71.7652 33.4274 71.7473 33.5769C71.7473 33.9467 72.0462 34.2247 72.8332 34.5448C73.6202 34.8649 74.8451 35.4603 74.8451 36.8163C74.8451 37.842 73.9586 38.878 72.4843 38.878C71.1885 38.878 70.4698 38.3401 70.2416 38.1095C70.1521 38.0103 70.1233 37.9705 70.2021 37.8318Z" fill="#032430"/>
<path d="M26.5797 42.9627H25.1518C25.1017 42.9627 25.0537 42.9427 25.0182 42.9073C24.9828 42.8719 24.9629 42.8238 24.9629 42.7737V41.6871C24.9629 41.637 24.9828 41.5889 25.0182 41.5535C25.0537 41.518 25.1017 41.4981 25.1518 41.4981H29.5769C29.627 41.4981 29.6751 41.518 29.7105 41.5535C29.746 41.5889 29.7659 41.637 29.7659 41.6871V42.773C29.7659 42.8231 29.746 42.8712 29.7105 42.9066C29.6751 42.942 29.627 42.9619 29.5769 42.9619H28.1526V48.2816C28.1507 48.3311 28.1302 48.3781 28.0951 48.4131C28.0601 48.4481 28.0131 48.4686 27.9636 48.4705H26.7675C26.7178 48.4692 26.6705 48.4489 26.6354 48.4137C26.6002 48.3786 26.5799 48.3313 26.5786 48.2816L26.5797 42.9627Z" fill="#032430"/>
<path d="M30.7626 41.6871C30.7639 41.6374 30.7843 41.5901 30.8194 41.5549C30.8546 41.5198 30.9019 41.4994 30.9516 41.4981H32.1372C32.1873 41.4981 32.2354 41.518 32.2708 41.5535C32.3063 41.5889 32.3262 41.637 32.3262 41.6871V44.1973H35.1748V41.6871C35.1748 41.6623 35.1797 41.6377 35.1892 41.6148C35.1987 41.5918 35.2126 41.571 35.2302 41.5535C35.2477 41.5359 35.2685 41.522 35.2915 41.5125C35.3144 41.503 35.339 41.4981 35.3638 41.4981H36.5494C36.5991 41.4994 36.6464 41.5198 36.6816 41.5549C36.7167 41.5901 36.737 41.6374 36.7384 41.6871V48.2813C36.737 48.331 36.7167 48.3783 36.6816 48.4135C36.6464 48.4486 36.5991 48.469 36.5494 48.4703H35.3638C35.339 48.4703 35.3144 48.4654 35.2915 48.4559C35.2685 48.4464 35.2477 48.4325 35.2302 48.4149C35.2126 48.3974 35.1987 48.3766 35.1892 48.3536C35.1797 48.3307 35.1748 48.3061 35.1748 48.2813V45.6592H32.3259V48.2823C32.3259 48.3324 32.306 48.3805 32.2706 48.4159C32.2351 48.4513 32.1871 48.4712 32.137 48.4712H30.9487C30.899 48.4699 30.8517 48.4496 30.8166 48.4144C30.7814 48.3793 30.7611 48.332 30.7598 48.2823L30.7626 41.6871Z" fill="#032430"/>
<path d="M38.4541 41.6871C38.4541 41.637 38.474 41.5889 38.5094 41.5535C38.5449 41.518 38.5929 41.4981 38.643 41.4981H42.7663C42.8164 41.4981 42.8645 41.518 42.8999 41.5535C42.9354 41.5889 42.9553 41.637 42.9553 41.6871V42.773C42.9553 42.8231 42.9354 42.8712 42.8999 42.9066C42.8645 42.942 42.8164 42.9619 42.7663 42.9619H40.0057V44.1973H42.2773C42.327 44.1986 42.3743 44.219 42.4094 44.2541C42.4446 44.2893 42.4649 44.3366 42.4662 44.3863V45.4722C42.4662 45.497 42.4613 45.5216 42.4518 45.5445C42.4423 45.5674 42.4284 45.5882 42.4109 45.6058C42.3933 45.6233 42.3725 45.6373 42.3496 45.6468C42.3267 45.6563 42.3021 45.6611 42.2773 45.6611H40.0057V47.0067H42.7663C42.8164 47.0067 42.8645 47.0266 42.8999 47.062C42.9354 47.0975 42.9553 47.1455 42.9553 47.1957V48.2816C42.9553 48.3317 42.9354 48.3797 42.8999 48.4152C42.8645 48.4506 42.8164 48.4705 42.7663 48.4705H38.6421C38.592 48.4705 38.5439 48.4506 38.5085 48.4152C38.473 48.3797 38.4531 48.3317 38.4531 48.2816L38.4541 41.6871Z" fill="#032430"/>
<path d="M47.3591 41.3993C48.1872 41.3987 48.9899 41.6852 49.6305 42.2099C50.2711 42.7346 50.71 43.4651 50.8725 44.2771C51.035 45.0891 50.9111 45.9323 50.5218 46.6631C50.1324 47.394 49.5018 47.9673 48.7373 48.2854C47.9728 48.6036 47.1217 48.6469 46.3288 48.408C45.5359 48.1691 44.8504 47.6628 44.3889 46.9752C43.9274 46.2877 43.7184 45.4614 43.7977 44.6372C43.8769 43.8129 44.2394 43.0416 44.8234 42.4545C45.156 42.1206 45.5512 41.8556 45.9862 41.6745C46.4213 41.4935 46.8879 41.3999 47.3591 41.3993ZM47.3591 46.9786C47.7543 46.9807 48.1412 46.8652 48.4706 46.647C48.8001 46.4287 49.0572 46.1175 49.2094 45.7528C49.3616 45.3881 49.402 44.9864 49.3254 44.5987C49.2488 44.211 49.0587 43.8548 48.7793 43.5754C48.4998 43.2959 48.1436 43.1058 47.756 43.0293C47.3683 42.9527 46.9666 42.993 46.6019 43.1452C46.2371 43.2974 45.9259 43.5545 45.7076 43.884C45.4894 44.2134 45.374 44.6003 45.376 44.9955C45.3788 45.5206 45.5886 46.0234 45.9599 46.3947C46.3312 46.766 46.834 46.9758 47.3591 46.9786Z" fill="#032430"/>
<path d="M52.1484 41.6871C52.1488 41.6368 52.169 41.5888 52.2047 41.5534C52.2404 41.518 52.2886 41.4981 52.3388 41.4981H55.316C55.889 41.496 56.4395 41.7213 56.8466 42.1245C57.2538 42.5278 57.4844 43.076 57.4878 43.649C57.4878 44.5671 56.8793 45.3042 56.0138 45.6531L57.3779 48.1816C57.3969 48.2106 57.4076 48.2443 57.4085 48.2789C57.4095 48.3136 57.4008 48.3478 57.3833 48.3778C57.3659 48.4078 57.3404 48.4323 57.3098 48.4486C57.2792 48.4649 57.2447 48.4723 57.2101 48.4701H55.8855C55.8533 48.4708 55.8214 48.4629 55.7933 48.4472C55.7651 48.4315 55.7417 48.4086 55.7253 48.3808L54.4007 45.7421H53.7144V48.2811C53.7124 48.3308 53.6917 48.378 53.6563 48.413C53.621 48.4481 53.5737 48.4685 53.524 48.4701H52.341C52.2907 48.4701 52.2425 48.4502 52.2068 48.4148C52.1712 48.3794 52.151 48.3313 52.1506 48.2811L52.1484 41.6871ZM55.1887 44.4753C55.3919 44.4672 55.5841 44.3807 55.7249 44.2339C55.8657 44.0872 55.9442 43.8917 55.944 43.6883C55.9431 43.488 55.8633 43.2961 55.7219 43.1543C55.5805 43.0124 55.3889 42.9319 55.1887 42.9303H53.7144V44.4831L55.1887 44.4753Z" fill="#032430"/>
<path d="M60.0792 45.116L57.8786 41.79C57.859 41.7618 57.8477 41.7287 57.8459 41.6944C57.8442 41.6601 57.8521 41.626 57.8687 41.5959C57.8854 41.5659 57.9101 41.5411 57.9401 41.5244C57.9702 41.5078 58.0042 41.4998 58.0385 41.5015H59.3344C59.3659 41.5025 59.3966 41.5112 59.424 41.5267C59.4514 41.5423 59.4747 41.5642 59.4917 41.5908L60.8767 43.6341L62.2618 41.5908C62.2787 41.5635 62.3022 41.5411 62.3302 41.5254C62.3582 41.5098 62.3897 41.5016 62.4217 41.5015H63.7175C63.7518 41.4998 63.7859 41.5078 63.8159 41.5244C63.8459 41.5411 63.8707 41.5659 63.8873 41.5959C63.904 41.626 63.9119 41.6601 63.9101 41.6944C63.9084 41.7287 63.8971 41.7618 63.8775 41.79L61.6404 45.116V48.2926C61.6391 48.3423 61.6188 48.3896 61.5836 48.4247C61.5484 48.4599 61.5012 48.4802 61.4515 48.4815H60.2649C60.2146 48.4816 60.1664 48.4617 60.1308 48.4263C60.0951 48.3909 60.0749 48.3428 60.0745 48.2926L60.0792 45.116Z" fill="#032430"/>
<path d="M26.9294 23.4788H25.5015C25.4513 23.4788 25.4033 23.4589 25.3678 23.4234C25.3324 23.388 25.3125 23.3399 25.3125 23.2898V22.2042C25.3125 22.154 25.3324 22.106 25.3678 22.0705C25.4033 22.0351 25.4513 22.0152 25.5015 22.0152H29.9279C29.9781 22.0152 30.0261 22.0351 30.0616 22.0705C30.097 22.106 30.1169 22.154 30.1169 22.2042V23.2901C30.1169 23.3402 30.097 23.3882 30.0616 23.4237C30.0261 23.4591 29.9781 23.479 29.9279 23.479H28.5036V28.7987C28.5016 28.8484 28.4809 28.8955 28.4456 28.9306C28.4103 28.9656 28.363 28.986 28.3132 28.9876H27.1197C27.07 28.9863 27.0227 28.966 26.9876 28.9308C26.9524 28.8956 26.9321 28.8483 26.9308 28.7987L26.9294 23.4788Z" fill="#032430"/>
<path d="M31.1133 22.2042C31.1146 22.1545 31.1349 22.1072 31.1701 22.072C31.2052 22.0369 31.2525 22.0165 31.3022 22.0152H32.4888C32.5389 22.0152 32.587 22.0351 32.6224 22.0705C32.6579 22.106 32.6778 22.154 32.6778 22.2042V24.7144H35.5264V22.2042C35.5264 22.154 35.5463 22.106 35.5818 22.0705C35.6172 22.0351 35.6653 22.0152 35.7154 22.0152H36.901C36.9507 22.0165 36.9981 22.0368 37.0332 22.0719C37.0684 22.1071 37.0887 22.1544 37.09 22.2042V28.7984C37.0887 28.8481 37.0684 28.8955 37.0332 28.9306C36.9981 28.9658 36.9507 28.9861 36.901 28.9874H35.7154C35.6653 28.9874 35.6172 28.9675 35.5818 28.932C35.5463 28.8966 35.5264 28.8485 35.5264 28.7984V26.1754H32.6778V28.7984C32.6778 28.8232 32.6729 28.8478 32.6635 28.8708C32.654 28.8937 32.6401 28.9145 32.6225 28.9321C32.605 28.9497 32.5841 28.9636 32.5612 28.9731C32.5382 28.9825 32.5136 28.9874 32.4888 28.9874H31.3032C31.2535 28.986 31.2062 28.9657 31.171 28.9306C31.1359 28.8954 31.1156 28.8481 31.1142 28.7984L31.1133 22.2042Z" fill="#032430"/>
<path d="M38.8008 22.2042C38.8012 22.1539 38.8214 22.1058 38.857 22.0705C38.8927 22.0351 38.9409 22.0152 38.9912 22.0152H43.1147C43.1395 22.0152 43.1641 22.0201 43.187 22.0296C43.2099 22.0391 43.2308 22.053 43.2483 22.0705C43.2659 22.0881 43.2798 22.1089 43.2893 22.1318C43.2988 22.1548 43.3037 22.1793 43.3037 22.2042V23.2901C43.3037 23.3149 43.2988 23.3395 43.2893 23.3624C43.2798 23.3853 43.2659 23.4061 43.2483 23.4237C43.2308 23.4412 43.2099 23.4551 43.187 23.4646C43.1641 23.4741 43.1395 23.479 43.1147 23.479H40.3541V24.7144H42.6256C42.6753 24.7157 42.7226 24.7361 42.7578 24.7712C42.7929 24.8064 42.8133 24.8537 42.8146 24.9034V25.9893C42.8146 26.0394 42.7947 26.0874 42.7593 26.1229C42.7238 26.1583 42.6758 26.1782 42.6256 26.1782H40.3541V27.5238H43.1147C43.1395 27.5238 43.1641 27.5287 43.187 27.5382C43.2099 27.5477 43.2308 27.5616 43.2483 27.5791C43.2659 27.5967 43.2798 27.6175 43.2893 27.6404C43.2988 27.6634 43.3037 27.6879 43.3037 27.7127V28.7987C43.3037 28.8235 43.2988 28.848 43.2893 28.871C43.2798 28.8939 43.2659 28.9147 43.2483 28.9323C43.2308 28.9498 43.2099 28.9637 43.187 28.9732C43.1641 28.9827 43.1395 28.9876 43.1147 28.9876H38.9924C38.9421 28.9876 38.8939 28.9677 38.8582 28.9324C38.8226 28.897 38.8023 28.8489 38.802 28.7987L38.8008 22.2042Z" fill="#032430"/>
<defs>
<linearGradient id="paint0_linear_377_921" x1="10.9631" y1="5.82159" x2="12.6585" y2="17.7654" gradientUnits="userSpaceOnUse">
<stop stop-color="#DC3B1B"/>
<stop offset="1" stop-color="#F6E174"/>
</linearGradient>
<linearGradient id="paint1_linear_377_921" x1="14.576" y1="69.5972" x2="14.576" y2="40.3412" gradientUnits="userSpaceOnUse">
<stop stop-color="#E9A42D"/>
<stop offset="1" stop-color="#DC3B1B"/>
</linearGradient>
</defs>
</svg>
