<svg width="82" height="75" viewBox="0 0 82 75" fill="none" xmlns="http://www.w3.org/2000/svg">
<path d="M16.0534 9.11524C15.7905 8.14602 15.7154 7.13546 15.8322 6.13804C14.395 3.50653 12.1998 1.36795 9.53165 0L12.1463 8.15071C9.80518 6.33342 6.97617 5.25404 4.01953 5.05004L8.70205 10.445L16.4133 16.3316C16.8114 13.9281 16.6887 11.4672 16.0534 9.11524V9.11524Z" fill="#E9A42D"/>
<path d="M13.722 19.5424L17.5116 17.1567L8.70084 10.4443C6.26516 11.805 4.22434 13.7746 2.77795 16.1604C0.19102 21.0482 -0.622006 26.6815 0.477278 32.1013C1.57656 37.5211 4.52021 42.3925 8.80711 45.8861H12.4277C11.1053 43.6757 10.4104 41.1467 10.4179 38.571V24.0842L12.2381 22.7819C12.3379 22.7068 12.4336 22.6263 12.5246 22.5407C12.608 22.4652 12.6873 22.3852 12.7621 22.301V22.301C13.1054 21.9334 13.368 21.498 13.5331 21.0229C13.6982 20.5478 13.7622 20.0434 13.7209 19.5421L13.722 19.5424Z" fill="#F6E174"/>
<path d="M20.6206 9.77437C19.3907 7.02121 18.9181 3.98966 19.2515 0.992789V0.920898C15.9149 3.15836 15.3184 6.31529 16.0529 9.11459C16.6877 11.4662 16.8101 13.9267 16.4118 16.3297L17.1209 16.8694C20.4711 15.0976 21.8807 12.6745 20.6206 9.77437Z" fill="#FFFF6C"/>
<path d="M8.72248 45.8169C8.06104 45.2713 7.42854 44.6916 6.82754 44.0801L3.51172 45.8169H8.72248Z" fill="#505050"/>
<path d="M13.6127 20.7627C13.4568 21.3388 13.1609 21.8674 12.7513 22.3016V22.3016L12.6992 22.3537C12.9887 22.7478 13.3689 23.0662 13.8077 23.282C14.2464 23.4979 14.7308 23.6047 15.2196 23.5934C15.7085 23.5821 16.1874 23.4531 16.6158 23.2173C17.0441 22.9815 17.4093 22.6458 17.6802 22.2388L13.6127 20.7627Z" fill="#363636"/>
<path d="M8.69922 10.4443L14.4927 19.0543L17.4956 17.1565L8.69922 10.4443Z" fill="url(#paint0_linear_1623_1086)"/>
<path d="M11.3894 20.9751C12.2107 20.9751 12.8764 20.3093 12.8764 19.488C12.8764 18.6667 12.2107 18.001 11.3894 18.001C10.5681 18.001 9.90234 18.6667 9.90234 19.488C9.90234 20.3093 10.5681 20.9751 11.3894 20.9751Z" fill="#363636"/>
<path d="M6.31793 27.2501C8.22372 27.2501 9.76867 25.7052 9.76867 23.7994C9.76867 21.8936 8.22372 20.3486 6.31793 20.3486C4.41214 20.3486 2.86719 21.8936 2.86719 23.7994C2.86719 25.7052 4.41214 27.2501 6.31793 27.2501Z" fill="#DC3B1B"/>
<path d="M17.5139 17.1572L13.7242 19.5429C13.7572 19.957 13.7183 20.3736 13.6094 20.7744L17.9387 22.3372L17.8957 23.6917C18.5332 23.3921 19.0663 22.9085 19.4264 22.3031C19.7865 21.6978 19.9569 20.9984 19.9159 20.2953C19.8748 19.5921 19.624 18.9174 19.1959 18.3581C18.7677 17.7987 18.1819 17.3805 17.5139 17.1572V17.1572Z" fill="#505050"/>
<path d="M19.6082 21.9346C19.2614 22.7066 18.6506 23.3296 17.8857 23.6917L17.9287 22.3373L17.676 22.2453C17.4046 22.651 17.0395 22.9853 16.6116 23.2201C16.1837 23.4549 15.7056 23.5832 15.2176 23.5942C14.7297 23.6052 14.2462 23.4985 13.8082 23.2832C13.3702 23.0679 12.9904 22.7504 12.701 22.3573C12.5539 22.5137 12.3924 22.656 12.2186 22.7821L10.3984 24.0845V35.439H24.5921V31.8909C24.5931 29.958 24.1431 28.0516 23.2779 26.3232C22.4127 24.5948 21.1562 23.0921 19.6082 21.9346V21.9346Z" fill="#E9A42D"/>
<path d="M12.3898 45.8165C12.1068 45.3424 11.8527 44.8515 11.629 44.3467L8.82422 45.8165H12.3898Z" fill="#363636"/>
<path d="M12.3906 45.8174H1.40335C1.28912 45.8174 1.17957 45.8628 1.0988 45.9435C1.01803 46.0243 0.972656 46.1338 0.972656 46.2481C0.972656 46.3623 1.01803 46.4719 1.0988 46.5526C1.17957 46.6334 1.28912 46.6788 1.40335 46.6788H12.9446C12.7488 46.3972 12.5664 46.1102 12.3906 45.8174Z" fill="#363636"/>
<path d="M10.4062 35.4385H24.6281V52.7932C22.7604 52.7932 20.9111 52.4254 19.1856 51.7107C17.4601 50.996 15.8923 49.9484 14.5717 48.6278C11.9046 45.9607 10.4063 42.3433 10.4062 38.5714V35.4385Z" fill="#FFFF6C"/>
<path d="M24.6282 52.7938C22.3312 52.7954 20.0681 52.2399 18.033 51.1748C15.9978 50.1097 14.2514 48.5669 12.9434 46.6787H7.27344V57.0716C7.27316 59.351 7.72197 61.6081 8.59421 63.7139C9.46645 65.8198 10.745 67.7332 12.3569 69.3449C13.9688 70.9565 15.8825 72.2348 17.9885 73.1067C20.0945 73.9786 22.3517 74.427 24.6311 74.4263H24.6282V52.7938Z" fill="url(#paint1_linear_1623_1086)"/>
<path d="M31.4918 34.7008C31.9768 34.6867 32.4597 34.7691 32.9126 34.9431C33.3655 35.1171 33.7793 35.3792 34.1301 35.7143C34.1516 35.7337 34.1688 35.7574 34.1806 35.7838C34.1923 35.8103 34.1984 35.8389 34.1984 35.8678C34.1984 35.8968 34.1923 35.9254 34.1806 35.9519C34.1688 35.9783 34.1516 36.002 34.1301 36.0214L33.2688 36.9028C33.2511 36.9211 33.2299 36.9357 33.2065 36.9456C33.183 36.9556 33.1578 36.9607 33.1324 36.9607C33.107 36.9607 33.0818 36.9556 33.0583 36.9456C33.0349 36.9357 33.0137 36.9211 32.996 36.9028C32.7254 36.6772 32.4048 36.5195 32.0608 36.4431C31.7169 36.3666 31.3596 36.3736 31.0189 36.4633C30.6782 36.553 30.3639 36.723 30.1022 36.959C29.8406 37.1949 29.6392 37.4901 29.5148 37.8197C29.3905 38.1494 29.3468 38.504 29.3874 38.854C29.4281 39.204 29.5519 39.5392 29.7484 39.8316C29.945 40.124 30.2087 40.3652 30.5175 40.5349C30.8262 40.7046 31.1711 40.798 31.5233 40.8073C32.0563 40.808 32.5729 40.6232 32.9846 40.2848C33.024 40.2497 33.075 40.2303 33.1278 40.2303C33.1807 40.2303 33.2317 40.2497 33.2711 40.2848L34.1325 41.1892C34.167 41.2289 34.1861 41.2798 34.1861 41.3324C34.1861 41.3851 34.167 41.436 34.1325 41.4757C33.4244 42.1658 32.4714 42.5468 31.4827 42.535C30.9582 42.5492 30.4362 42.4581 29.9475 42.2672C29.4588 42.0763 29.0133 41.7894 28.6373 41.4234C28.2613 41.0574 27.9625 40.6198 27.7584 40.1365C27.5544 39.6531 27.4492 39.1337 27.4492 38.609C27.4492 38.0844 27.5544 37.565 27.7584 37.0816C27.9625 36.5983 28.2613 36.1607 28.6373 35.7947C29.0133 35.4287 29.4588 35.1418 29.9475 34.9509C30.4362 34.76 30.9582 34.6689 31.4827 34.6831L31.4918 34.7008Z" fill="#FCFCFC"/>
<path d="M34.4696 42.1598L37.8974 34.8218C37.9146 34.7872 37.9407 34.7579 37.9729 34.7367C38.0052 34.7155 38.0425 34.7032 38.081 34.7012H38.1852C38.2241 34.7033 38.2618 34.7156 38.2945 34.7367C38.3272 34.7579 38.3538 34.7872 38.3717 34.8218L41.7823 42.1598C41.7997 42.1903 41.8083 42.2249 41.8074 42.2599C41.8065 42.2949 41.796 42.329 41.7771 42.3585C41.7582 42.388 41.7316 42.4118 41.7001 42.4273C41.6687 42.4428 41.6336 42.4493 41.5987 42.4463H40.3872C40.1919 42.4463 40.1007 42.3804 40.0054 42.1598L39.6147 41.2984H36.6406L36.2473 42.1598C36.2168 42.2386 36.1626 42.3061 36.0921 42.3527C36.0217 42.3994 35.9385 42.423 35.854 42.4203H34.6532C34.6217 42.4209 34.5906 42.4138 34.5625 42.3996C34.5344 42.3854 34.5103 42.3646 34.4922 42.3389C34.474 42.3131 34.4625 42.2834 34.4585 42.2521C34.4546 42.2209 34.4584 42.1892 34.4696 42.1598V42.1598ZM38.951 39.8257L38.1214 38.0284L37.3033 39.8257H38.951Z" fill="#FCFCFC"/>
<path d="M45.978 34.7008C46.463 34.6867 46.9459 34.7691 47.3988 34.9431C47.8517 35.1171 48.2655 35.3792 48.6163 35.7143C48.6387 35.7331 48.6567 35.7566 48.669 35.7832C48.6813 35.8097 48.6877 35.8386 48.6877 35.8678C48.6877 35.8971 48.6813 35.926 48.669 35.9525C48.6567 35.979 48.6387 36.0025 48.6163 36.0214L47.7552 36.9028C47.7374 36.9233 47.7154 36.9398 47.6907 36.9511C47.666 36.9624 47.6391 36.9682 47.612 36.9682C47.5848 36.9682 47.5579 36.9624 47.5332 36.9511C47.5085 36.9398 47.4865 36.9233 47.4687 36.9028C47.1981 36.6772 46.8774 36.5195 46.5335 36.4431C46.1895 36.3666 45.8323 36.3736 45.4916 36.4633C45.1508 36.553 44.8365 36.723 44.5749 36.959C44.3132 37.1949 44.1118 37.4901 43.9875 37.8197C43.8631 38.1494 43.8195 38.504 43.8601 38.854C43.9007 39.204 44.0245 39.5392 44.2211 39.8316C44.4177 40.124 44.6814 40.3652 44.9901 40.5349C45.2989 40.7046 45.6438 40.798 45.996 40.8073C46.5289 40.8079 47.0455 40.6232 47.4572 40.2848C47.4967 40.2497 47.5477 40.2303 47.6005 40.2303C47.6533 40.2303 47.7043 40.2497 47.7438 40.2848L48.6051 41.1892C48.6409 41.2283 48.6607 41.2794 48.6607 41.3324C48.6607 41.3854 48.6409 41.4365 48.6051 41.4757C47.8971 42.1658 46.9441 42.5468 45.9554 42.535C45.4309 42.5492 44.9088 42.4581 44.4201 42.2672C43.9314 42.0763 43.4859 41.7894 43.1099 41.4234C42.734 41.0574 42.4351 40.6198 42.2311 40.1365C42.027 39.6531 41.9219 39.1337 41.9219 38.609C41.9219 38.0844 42.027 37.565 42.2311 37.0816C42.4351 36.5983 42.734 36.1607 43.1099 35.7947C43.4859 35.4287 43.9314 35.1418 44.4201 34.9509C44.9088 34.76 45.4309 34.6689 45.9554 34.6831L45.978 34.7008Z" fill="#FCFCFC"/>
<path d="M48.9589 42.1598L52.3724 34.8218C52.3896 34.7872 52.4157 34.7579 52.448 34.7367C52.4802 34.7155 52.5175 34.7032 52.556 34.7012H52.6652C52.7042 34.703 52.7419 34.7151 52.7747 34.7363C52.8075 34.7575 52.834 34.787 52.8517 34.8218L56.2709 42.1598C56.2883 42.1905 56.297 42.2254 56.2959 42.2607C56.2948 42.2959 56.2841 42.3302 56.2648 42.3598C56.2456 42.3894 56.2185 42.4131 56.1867 42.4283C56.1549 42.4436 56.1195 42.4498 56.0844 42.4463H54.8758C54.6779 42.4463 54.5893 42.3802 54.494 42.1598L54.1006 41.2984H51.1292L50.7359 42.1598C50.7054 42.2386 50.6512 42.3061 50.5807 42.3527C50.5103 42.3994 50.427 42.423 50.3426 42.4203H49.1444C49.1127 42.4214 49.0812 42.4147 49.0527 42.4007C49.0243 42.3867 48.9997 42.3659 48.9812 42.3401C48.9628 42.3143 48.951 42.2843 48.9469 42.2529C48.9428 42.2214 48.9466 42.1895 48.9579 42.1598H48.9589ZM53.4404 39.8257L52.6105 38.0284L51.7923 39.8257H53.4404Z" fill="#FCFCFC"/>
<path d="M57.7462 36.4129H56.1873C56.1324 36.4129 56.0798 36.3911 56.041 36.3523C56.0023 36.3135 55.9805 36.2609 55.9805 36.2061V35.0262C55.9804 34.999 55.9858 34.9721 55.9961 34.947C56.0065 34.9219 56.0218 34.899 56.041 34.8798C56.0602 34.8606 56.083 34.8454 56.1081 34.835C56.1332 34.8246 56.1601 34.8193 56.1873 34.8193H61.0276C61.0825 34.8193 61.1351 34.8411 61.1739 34.8799C61.2127 34.9187 61.2345 34.9713 61.2345 35.0262V36.2147C61.2345 36.2695 61.2127 36.3221 61.1739 36.3609C61.1351 36.3997 61.0825 36.4215 61.0276 36.4215H59.4687V42.2467C59.4673 42.3011 59.4451 42.3529 59.4066 42.3914C59.3681 42.4299 59.3163 42.4521 59.2619 42.4535H57.9528C57.8984 42.4521 57.8465 42.4299 57.8081 42.3914C57.7696 42.3529 57.7473 42.3011 57.746 42.2467L57.7462 36.4129Z" fill="#FCFCFC"/>
<path d="M65.6387 34.7012C66.545 34.7005 67.4235 35.014 68.1247 35.5883C68.8258 36.1626 69.3062 36.9622 69.4841 37.8509C69.6619 38.7396 69.5263 39.6625 69.1002 40.4624C68.6741 41.2623 67.9839 41.8898 67.1471 42.238C66.3103 42.5862 65.3787 42.6336 64.5109 42.3722C63.6432 42.1107 62.8928 41.5565 62.3877 40.804C61.8826 40.0515 61.6539 39.1472 61.7406 38.245C61.8274 37.3428 62.2241 36.4986 62.8633 35.8561C63.2274 35.4908 63.6599 35.2008 64.1361 35.0026C64.6123 34.8044 65.1229 34.702 65.6387 34.7012V34.7012ZM65.6387 40.8077C66.0712 40.81 66.4946 40.6836 66.8552 40.4447C67.2158 40.2059 67.4972 39.8652 67.6638 39.466C67.8304 39.0669 67.8745 38.6272 67.7907 38.2029C67.7069 37.7785 67.4988 37.3887 67.193 37.0829C66.8871 36.777 66.4973 36.569 66.073 36.4851C65.6487 36.4013 65.209 36.4455 64.8098 36.6121C64.4106 36.7786 64.07 37.0601 63.8311 37.4206C63.5922 37.7812 63.4659 38.2047 63.4682 38.6372C63.4712 39.2119 63.7008 39.7622 64.1072 40.1686C64.5136 40.575 65.0639 40.8047 65.6387 40.8077Z" fill="#FCFCFC"/>
<path d="M70.8828 35.0252C70.8832 34.9702 70.9054 34.9176 70.9444 34.8788C70.9834 34.8401 71.0362 34.8184 71.0912 34.8184H75.6044C75.6593 34.8184 75.7119 34.8401 75.7506 34.8789C75.7894 34.9177 75.8112 34.9703 75.8112 35.0252V36.2137C75.8112 36.2686 75.7894 36.3212 75.7506 36.36C75.7119 36.3987 75.6593 36.4205 75.6044 36.4205H72.5829V37.7726H75.0691C75.1236 37.7748 75.1752 37.7975 75.2135 37.8361C75.2519 37.8748 75.2742 37.9266 75.2759 37.981V39.1696C75.2759 39.1967 75.2706 39.2236 75.2602 39.2487C75.2498 39.2738 75.2346 39.2966 75.2154 39.3158C75.1962 39.335 75.1734 39.3502 75.1483 39.3606C75.1232 39.371 75.0963 39.3764 75.0691 39.3764H72.5829V40.8462H75.6044C75.6594 40.8466 75.712 40.8688 75.7507 40.9078C75.7895 40.9468 75.8112 40.9996 75.8112 41.0546V42.2431C75.8112 42.298 75.7894 42.3506 75.7506 42.3894C75.7119 42.4282 75.6593 42.4499 75.6044 42.4499H71.0912C71.0362 42.4499 70.9834 42.4282 70.9444 42.3895C70.9054 42.3507 70.8832 42.2981 70.8828 42.2431V35.0252Z" fill="#FCFCFC"/>
<path d="M72.1952 33.2394C72.1684 33.2231 72.1452 33.2014 72.1271 33.1757C72.1091 33.1501 72.0966 33.1209 72.0904 33.0901C72.0842 33.0593 72.0845 33.0276 72.0912 32.997C72.0979 32.9663 72.1108 32.9373 72.1293 32.912L72.4997 32.2688C72.557 32.1712 72.718 32.1941 72.7862 32.2373L74.6408 33.3714C74.6747 33.3923 74.7001 33.4246 74.7122 33.4626C74.7244 33.5005 74.7225 33.5416 74.7069 33.5782L74.4772 34.0377C74.4676 34.0653 74.4518 34.0902 74.4311 34.1108C74.4104 34.1314 74.3853 34.1469 74.3577 34.1563C74.3301 34.1657 74.3007 34.1688 74.2718 34.1651C74.2429 34.1615 74.2151 34.1513 74.1907 34.1354L72.1952 33.2394Z" fill="#DC3B1B"/>
<path d="M76.8396 41.4074L77.3535 40.503C77.3969 40.4492 77.4583 40.4129 77.5264 40.4008C77.5944 40.3886 77.6646 40.4016 77.7239 40.4371C77.7669 40.46 78.5509 41.0362 79.2714 41.0362C79.3644 41.0457 79.4583 41.036 79.5474 41.0078C79.6365 40.9795 79.7188 40.9333 79.7893 40.8719C79.8599 40.8106 79.917 40.7354 79.9573 40.6511C79.9976 40.5667 80.0202 40.475 80.0236 40.3816C80.0236 39.9222 79.6418 39.5742 78.901 39.2793C77.9633 38.9089 76.7852 38.1799 76.7852 36.8707C76.7852 35.7913 77.6236 34.7002 79.3029 34.7002C80.147 34.724 80.9627 35.01 81.637 35.5183C81.686 35.5607 81.7192 35.6183 81.7312 35.682C81.7432 35.7456 81.7333 35.8114 81.7031 35.8687L81.1463 36.7069C81.0718 36.8275 80.8735 36.9252 80.7759 36.8475C80.6782 36.7699 79.883 36.1964 79.2169 36.1964C79.0529 36.181 78.8894 36.2303 78.7612 36.3338C78.633 36.4373 78.5504 36.5868 78.5309 36.7504C78.5309 37.1552 78.858 37.4594 79.7194 37.8097C80.5808 38.1601 81.9214 38.8118 81.9214 40.2959C81.9214 41.4186 80.9512 42.5524 79.3375 42.5524C77.9193 42.5524 77.1326 41.9637 76.8828 41.7113C76.7849 41.6027 76.7534 41.5592 76.8396 41.4074Z" fill="#FCFCFC"/>
<path d="M29.0939 47.0229H27.531C27.4762 47.0229 27.4236 47.0011 27.3848 46.9623C27.346 46.9235 27.3242 46.8709 27.3242 46.8161V45.6267C27.3242 45.5719 27.346 45.5193 27.3848 45.4805C27.4236 45.4417 27.4762 45.4199 27.531 45.4199H32.3743C32.4291 45.4199 32.4817 45.4417 32.5205 45.4805C32.5593 45.5193 32.5811 45.5719 32.5811 45.6267V46.8153C32.5811 46.8701 32.5593 46.9227 32.5205 46.9615C32.4817 47.0003 32.4291 47.0221 32.3743 47.0221H30.8153V52.8444C30.8133 52.8986 30.7908 52.95 30.7525 52.9884C30.7141 53.0267 30.6627 53.0492 30.6085 53.0513H29.2994C29.245 53.0498 29.1932 53.0276 29.1547 52.9891C29.1163 52.9506 29.094 52.8988 29.0926 52.8444L29.0939 47.0229Z" fill="#FCFCFC"/>
<path d="M33.6711 45.6267C33.6725 45.5723 33.6948 45.5206 33.7333 45.4821C33.7717 45.4436 33.8235 45.4214 33.8779 45.4199H35.1756C35.2304 45.4199 35.283 45.4417 35.3218 45.4805C35.3606 45.5193 35.3824 45.5719 35.3824 45.6267V48.3742H38.5003V45.6267C38.5003 45.5996 38.5056 45.5727 38.516 45.5476C38.5264 45.5225 38.5416 45.4997 38.5608 45.4805C38.58 45.4613 38.6028 45.4461 38.6279 45.4357C38.653 45.4253 38.6799 45.4199 38.7071 45.4199H40.0047C40.0591 45.4214 40.1109 45.4436 40.1494 45.4821C40.1879 45.5206 40.2101 45.5723 40.2116 45.6267V52.8442C40.2101 52.8986 40.1879 52.9503 40.1494 52.9888C40.1109 53.0273 40.0591 53.0495 40.0047 53.051H38.7071C38.6799 53.051 38.653 53.0456 38.6279 53.0352C38.6028 53.0249 38.58 53.0096 38.5608 52.9904C38.5416 52.9712 38.5264 52.9484 38.516 52.9233C38.5056 52.8982 38.5003 52.8713 38.5003 52.8442V49.9743H35.3821V52.8452C35.3821 52.9001 35.3603 52.9527 35.3216 52.9915C35.2828 53.0302 35.2302 53.052 35.1753 53.052H33.8748C33.8204 53.0506 33.7686 53.0283 33.7301 52.9899C33.6917 52.9514 33.6694 52.8996 33.668 52.8452L33.6711 45.6267Z" fill="#FCFCFC"/>
<path d="M42.0909 45.6267C42.0909 45.5719 42.1127 45.5193 42.1515 45.4805C42.1902 45.4417 42.2429 45.4199 42.2977 45.4199H46.8106C46.8655 45.4199 46.9181 45.4417 46.9569 45.4805C46.9957 45.5193 47.0175 45.5719 47.0175 45.6267V46.8153C47.0175 46.8701 46.9957 46.9227 46.9569 46.9615C46.9181 47.0003 46.8655 47.0221 46.8106 47.0221H43.7892V48.3742H46.2754C46.3298 48.3757 46.3815 48.3979 46.42 48.4364C46.4585 48.4749 46.4807 48.5266 46.4822 48.581V49.7696C46.4822 49.7967 46.4768 49.8236 46.4664 49.8487C46.4561 49.8738 46.4408 49.8966 46.4216 49.9158C46.4024 49.935 46.3796 49.9502 46.3545 49.9606C46.3294 49.971 46.3025 49.9764 46.2754 49.9764H43.7892V51.4491H46.8106C46.8655 51.4491 46.9181 51.4709 46.9569 51.5097C46.9957 51.5484 47.0175 51.6011 47.0175 51.6559V52.8444C47.0175 52.8993 46.9957 52.9519 46.9569 52.9907C46.9181 53.0295 46.8655 53.0513 46.8106 53.0513H42.2967C42.2418 53.0513 42.1892 53.0295 42.1504 52.9907C42.1116 52.9519 42.0898 52.8993 42.0898 52.8444L42.0909 45.6267Z" fill="#FCFCFC"/>
<path d="M51.8379 45.3115C52.7442 45.3109 53.6227 45.6244 54.3239 46.1987C55.025 46.773 55.5054 47.5726 55.6833 48.4613C55.8612 49.35 55.7255 50.2729 55.2994 51.0728C54.8733 51.8727 54.1831 52.5002 53.3463 52.8484C52.5095 53.1966 51.578 53.244 50.7102 52.9825C49.8424 52.7211 49.092 52.1669 48.5869 51.4144C48.0818 50.6619 47.8531 49.7575 47.9399 48.8554C48.0266 47.9532 48.4233 47.109 49.0625 46.4665C49.4266 46.101 49.859 45.8109 50.3353 45.6127C50.8115 45.4146 51.3221 45.3122 51.8379 45.3115V45.3115ZM51.8379 51.418C52.2704 51.4203 52.6938 51.294 53.0544 51.0551C53.415 50.8162 53.6964 50.4755 53.863 50.0764C54.0296 49.6772 54.0737 49.2375 53.9899 48.8132C53.9061 48.3889 53.6981 47.999 53.3922 47.6932C53.0864 47.3874 52.6965 47.1793 52.2722 47.0955C51.8479 47.0117 51.4082 47.0558 51.009 47.2224C50.6099 47.389 50.2692 47.6704 50.0303 48.031C49.7914 48.3916 49.6651 48.815 49.6674 49.2475C49.6704 49.8223 49.9 50.3726 50.3064 50.779C50.7128 51.1854 51.2632 51.415 51.8379 51.418V51.418Z" fill="#FCFCFC"/>
<path d="M57.082 45.6268C57.0824 45.5718 57.1046 45.5192 57.1436 45.4804C57.1826 45.4417 57.2354 45.4199 57.2904 45.4199H60.5489C61.1761 45.4177 61.7786 45.6642 62.2242 46.1055C62.6698 46.5469 62.9222 47.1469 62.926 47.7741C62.926 48.779 62.26 49.5857 61.3126 49.9675L62.8057 52.7351C62.8265 52.7667 62.8381 52.8036 62.8392 52.8416C62.8403 52.8795 62.8307 52.917 62.8116 52.9498C62.7925 52.9826 62.7647 53.0094 62.7312 53.0272C62.6977 53.0451 62.6599 53.0532 62.622 53.0507H61.1722C61.137 53.0515 61.1021 53.0429 61.0713 53.0257C61.0405 53.0086 61.0148 52.9835 60.9969 52.9531L59.5471 50.0649H58.7959V52.8439C58.7938 52.8984 58.7711 52.95 58.7324 52.9883C58.6938 53.0267 58.642 53.049 58.5876 53.0507H57.2928C57.2378 53.0507 57.185 53.029 57.146 52.9903C57.1069 52.9515 57.0848 52.8989 57.0844 52.8439L57.082 45.6268ZM60.4096 48.6785C60.632 48.6696 60.8423 48.5749 60.9965 48.4143C61.1506 48.2537 61.2366 48.0397 61.2363 47.8171C61.2353 47.5979 61.1479 47.3879 60.9932 47.2326C60.8385 47.0773 60.6288 46.9892 60.4096 46.9875H58.7959V48.687L60.4096 48.6785Z" fill="#FCFCFC"/>
<path d="M65.7571 49.3801L63.3485 45.7398C63.3271 45.7089 63.3147 45.6727 63.3128 45.6351C63.3108 45.5976 63.3195 45.5603 63.3377 45.5274C63.3559 45.4945 63.383 45.4674 63.4159 45.4492C63.4487 45.4309 63.486 45.4222 63.5236 45.4241H64.9418C64.9763 45.4252 65.01 45.4346 65.04 45.4516C65.07 45.4687 65.0954 45.4927 65.114 45.5218L66.63 47.7582L68.1459 45.5218C68.1644 45.492 68.1902 45.4673 68.2208 45.4503C68.2514 45.4332 68.2859 45.4242 68.321 45.4241H69.7392C69.7768 45.4222 69.8141 45.4309 69.8469 45.4492C69.8798 45.4674 69.9068 45.4945 69.9251 45.5274C69.9433 45.5603 69.9519 45.5976 69.95 45.6351C69.9481 45.6727 69.9357 45.7089 69.9143 45.7398L67.4658 49.3801V52.8569C67.4644 52.9113 67.4421 52.9631 67.4036 53.0016C67.3652 53.04 67.3134 53.0623 67.259 53.0637H65.9603C65.9053 53.0637 65.8525 53.042 65.8135 53.0033C65.7745 52.9645 65.7523 52.9119 65.7519 52.8569L65.7571 49.3801Z" fill="#FCFCFC"/>
<path d="M29.4767 25.6976H27.9138C27.859 25.6976 27.8064 25.6758 27.7676 25.637C27.7288 25.5982 27.707 25.5456 27.707 25.4908V24.3025C27.707 24.2477 27.7288 24.1951 27.7676 24.1563C27.8064 24.1175 27.859 24.0957 27.9138 24.0957H32.7586C32.8135 24.0957 32.8661 24.1175 32.9049 24.1563C32.9437 24.1951 32.9655 24.2477 32.9655 24.3025V25.4911C32.9655 25.5459 32.9437 25.5985 32.9049 25.6373C32.8661 25.6761 32.8135 25.6979 32.7586 25.6979H31.1997V31.5202C31.1976 31.5746 31.1749 31.6262 31.1362 31.6646C31.0975 31.703 31.0458 31.7253 30.9913 31.727H29.6851C29.6307 31.7256 29.5789 31.7033 29.5404 31.6649C29.5019 31.6264 29.4797 31.5746 29.4782 31.5202L29.4767 25.6976Z" fill="#FCFCFC"/>
<path d="M34.0547 24.3025C34.0561 24.2481 34.0784 24.1964 34.1169 24.1579C34.1553 24.1194 34.2071 24.0972 34.2615 24.0957H35.5602C35.6151 24.0957 35.6677 24.1175 35.7065 24.1563C35.7452 24.1951 35.767 24.2477 35.767 24.3025V27.05H38.8849V24.3025C38.8849 24.2477 38.9067 24.1951 38.9455 24.1563C38.9843 24.1175 39.0369 24.0957 39.0917 24.0957H40.3894C40.4438 24.0971 40.4956 24.1193 40.5341 24.1578C40.5726 24.1963 40.5948 24.2481 40.5962 24.3025V31.52C40.5948 31.5744 40.5726 31.6262 40.5341 31.6647C40.4956 31.7032 40.4438 31.7254 40.3894 31.7268H39.0917C39.0369 31.7268 38.9843 31.705 38.9455 31.6662C38.9067 31.6274 38.8849 31.5748 38.8849 31.52V28.649H35.767V31.52C35.7671 31.5471 35.7617 31.574 35.7514 31.5991C35.741 31.6242 35.7257 31.6471 35.7065 31.6663C35.6873 31.6855 35.6645 31.7007 35.6394 31.7111C35.6143 31.7215 35.5874 31.7268 35.5602 31.7268H34.2625C34.2081 31.7253 34.1564 31.7031 34.1179 31.6646C34.0794 31.6261 34.0572 31.5743 34.0557 31.52L34.0547 24.3025Z" fill="#FCFCFC"/>
<path d="M42.4688 24.3025C42.4692 24.2475 42.4913 24.1949 42.5303 24.1562C42.5694 24.1174 42.6221 24.0957 42.6771 24.0957H47.1903C47.2175 24.0957 47.2444 24.1011 47.2695 24.1114C47.2946 24.1218 47.3174 24.1371 47.3366 24.1563C47.3558 24.1755 47.371 24.1983 47.3814 24.2234C47.3918 24.2485 47.3972 24.2754 47.3972 24.3025V25.4911C47.3972 25.5182 47.3918 25.5451 47.3814 25.5702C47.371 25.5953 47.3558 25.6181 47.3366 25.6373C47.3174 25.6565 47.2946 25.6717 47.2695 25.6821C47.2444 25.6925 47.2175 25.6979 47.1903 25.6979H44.1689V27.05H46.6551C46.7095 27.0514 46.7612 27.0737 46.7997 27.1122C46.8382 27.1506 46.8604 27.2024 46.8619 27.2568V28.4453C46.8619 28.5002 46.8401 28.5528 46.8013 28.5916C46.7625 28.6304 46.7099 28.6522 46.6551 28.6522H44.1689V30.1249H47.1903C47.2175 30.1249 47.2444 30.1302 47.2695 30.1406C47.2946 30.151 47.3174 30.1662 47.3366 30.1854C47.3558 30.2046 47.371 30.2274 47.3814 30.2525C47.3918 30.2776 47.3972 30.3045 47.3972 30.3317V31.5202C47.3972 31.5474 47.3918 31.5743 47.3814 31.5994C47.371 31.6245 47.3558 31.6473 47.3366 31.6665C47.3174 31.6857 47.2946 31.7009 47.2695 31.7113C47.2444 31.7217 47.2175 31.727 47.1903 31.727H42.6784C42.6234 31.727 42.5707 31.7053 42.5316 31.6666C42.4926 31.6278 42.4705 31.5752 42.4701 31.5202L42.4688 24.3025Z" fill="#FCFCFC"/>
<defs>
<linearGradient id="paint0_linear_1623_1086" x1="11.9979" y1="6.37184" x2="13.8535" y2="19.4444" gradientUnits="userSpaceOnUse">
<stop stop-color="#DC3B1B"/>
<stop offset="1" stop-color="#F6E174"/>
</linearGradient>
<linearGradient id="paint1_linear_1623_1086" x1="15.9523" y1="76.1745" x2="15.9523" y2="44.1537" gradientUnits="userSpaceOnUse">
<stop stop-color="#E9A42D"/>
<stop offset="1" stop-color="#DC3B1B"/>
</linearGradient>
</defs>
</svg>
